{"asset":{"version":"2.0","generator":"portals-grok"},"scene":0,"scenes":[{"nodes":[0]}],"nodes":[{"mesh":0}],"meshes":[{"primitives":[{"attributes":{"POSITION":0,"NORMAL":1},"indices":2,"material":0}]}],"materials":[{"pbrMetallicRoughness":{"baseColorFactor":[0.42,0.28,0.16,1],"metallicFactor":0.05,"roughnessFactor":0.82}}],"accessors":[{"bufferView":0,"componentType":5126,"count":168,"type":"VEC3","max":[0.23999999463558197,0.8899999856948853,0.23999999463558197],"min":[-0.23999999463558197,0,-0.23999999463558197]},{"bufferView":1,"componentType":5126,"count":168,"type":"VEC3"},{"bufferView":2,"componentType":5123,"count":252,"type":"SCALAR"}],"bufferViews":[{"buffer":0,"byteOffset":0,"byteLength":2016,"target":34962},{"buffer":0,"byteOffset":2016,"byteLength":2016,"target":34962},{"buffer":0,"byteOffset":4032,"byteLength":504,"target":34963}],"buffers":[{"byteLength":4536,"uri":"data:application/octet-stream;base64,"}]}
