{"asset":{"version":"2.0","generator":"portals-grok"},"scene":0,"scenes":[{"nodes":[0]}],"nodes":[{"mesh":0}],"meshes":[{"primitives":[{"attributes":{"POSITION":0,"NORMAL":1},"indices":2,"material":0}]}],"materials":[{"pbrMetallicRoughness":{"baseColorFactor":[0.82,0.76,0.62,1],"metallicFactor":0.05,"roughnessFactor":0.82}}],"accessors":[{"bufferView":0,"componentType":5126,"count":72,"type":"VEC3","max":[0.25999999046325684,3.4000000953674316,0.25999999046325684],"min":[-0.25999999046325684,0,-0.25999999046325684]},{"bufferView":1,"componentType":5126,"count":72,"type":"VEC3"},{"bufferView":2,"componentType":5123,"count":108,"type":"SCALAR"}],"bufferViews":[{"buffer":0,"byteOffset":0,"byteLength":864,"target":34962},{"buffer":0,"byteOffset":864,"byteLength":864,"target":34962},{"buffer":0,"byteOffset":1728,"byteLength":216,"target":34963}],"buffers":[{"byteLength":1944,"uri":"data:application/octet-stream;base64,"}]}
