{"asset":{"version":"2.0","generator":"portals-grok"},"scene":0,"scenes":[{"nodes":[0]}],"nodes":[{"mesh":0}],"meshes":[{"primitives":[{"attributes":{"POSITION":0,"NORMAL":1},"indices":2,"material":0}]}],"materials":[{"pbrMetallicRoughness":{"baseColorFactor":[0.32,0.22,0.12,1],"metallicFactor":0.05,"roughnessFactor":0.82}}],"accessors":[{"bufferView":0,"componentType":5126,"count":48,"type":"VEC3","max":[0.5899999737739563,0.6650000214576721,0.3199999928474426],"min":[-0.5899999737739563,0,-0.3199999928474426]},{"bufferView":1,"componentType":5126,"count":48,"type":"VEC3"},{"bufferView":2,"componentType":5123,"count":72,"type":"SCALAR"}],"bufferViews":[{"buffer":0,"byteOffset":0,"byteLength":576,"target":34962},{"buffer":0,"byteOffset":576,"byteLength":576,"target":34962},{"buffer":0,"byteOffset":1152,"byteLength":144,"target":34963}],"buffers":[{"byteLength":1296,"uri":"data:application/octet-stream;base64,"}]}
